<svg xmlns="http://www.w3.org/2000/svg" width="180" height="180" viewBox="0 0 180 180">
  <defs>
    <linearGradient id="g" x1="0%" y1="0%" x2="100%" y2="100%">
      <stop offset="0%" style="stop-color:#FF6868"/>
      <stop offset="50%" style="stop-color:#4ECDC4"/>
      <stop offset="100%" style="stop-color:#2D3B6B"/>
    </linearGradient>
  </defs>
  <rect width="180" height="180" rx="37" fill="url(#g)"/>
  <g transform="translate(38,34)" opacity="0.95">
    <rect x="0" y="4" width="48" height="72" rx="4" fill="white" opacity="0.9"/>
    <rect x="4" y="16" width="40" height="4" rx="2" fill="#2D3B6B" opacity="0.25"/>
    <rect x="4" y="26" width="34" height="4" rx="2" fill="#2D3B6B" opacity="0.2"/>
    <rect x="4" y="36" width="38" height="4" rx="2" fill="#2D3B6B" opacity="0.25"/>
    <rect x="4" y="46" width="30" height="4" rx="2" fill="#2D3B6B" opacity="0.15"/>
    <rect x="58" y="4" width="48" height="72" rx="4" fill="white" opacity="0.95"/>
    <rect x="62" y="16" width="40" height="4" rx="2" fill="#2D3B6B" opacity="0.2"/>
    <rect x="62" y="26" width="36" height="4" rx="2" fill="#2D3B6B" opacity="0.25"/>
    <rect x="62" y="36" width="42" height="4" rx="2" fill="#2D3B6B" opacity="0.2"/>
    <rect x="62" y="46" width="32" height="4" rx="2" fill="#2D3B6B" opacity="0.15"/>
    <rect x="52" y="2" width="3" height="76" rx="1.5" fill="#2D3B6B" opacity="0.3"/>
  </g>
</svg>